<svg width="1333" height="349" viewBox="0 0 1333 349" fill="none" xmlns="http://www.w3.org/2000/svg">
<path d="M330.662 259V242.104L398.758 154.04H330.662V134.072H427.174V151.224L359.078 239.288H429.99V259H330.662ZM508.84 261.304C488.36 261.304 472.232 255.587 460.456 244.152C448.68 232.547 442.792 216.76 442.792 196.792C442.792 183.992 445.352 172.728 450.472 163C455.762 153.101 463.016 145.421 472.232 139.96C481.448 134.499 492.029 131.768 503.976 131.768C521.213 131.768 534.781 137.315 544.68 148.408C554.578 159.331 559.528 174.435 559.528 193.72V202.424H467.88C469.757 228.365 483.496 241.336 509.096 241.336C516.264 241.336 523.261 240.227 530.088 238.008C537.085 235.789 543.656 232.12 549.8 227L557.48 244.92C551.848 250.04 544.594 254.051 535.72 256.952C526.845 259.853 517.885 261.304 508.84 261.304ZM505 149.944C494.248 149.944 485.714 153.272 479.4 159.928C473.085 166.584 469.245 175.459 467.88 186.552H537.768C537.256 174.947 534.184 165.987 528.552 159.672C522.92 153.187 515.069 149.944 505 149.944ZM585.156 259V134.072H610.244V154.808C614.51 147.299 620.313 141.581 627.652 137.656C635.161 133.731 643.524 131.768 652.74 131.768C682.265 131.768 697.028 148.493 697.028 181.944V259H671.172V183.48C671.172 172.728 669.038 164.877 664.772 159.928C660.676 154.979 654.19 152.504 645.316 152.504C634.905 152.504 626.542 155.832 620.228 162.488C614.084 168.973 611.012 177.592 611.012 188.344V259H585.156ZM784.368 261.304C771.738 261.304 760.816 258.659 751.6 253.368C742.384 248.077 735.216 240.653 730.096 231.096C725.146 221.368 722.672 209.848 722.672 196.536C722.672 183.224 725.146 171.789 730.096 162.232C735.216 152.504 742.384 144.995 751.6 139.704C760.816 134.413 771.738 131.768 784.368 131.768C796.656 131.768 807.408 134.413 816.624 139.704C825.84 144.995 833.008 152.504 838.128 162.232C843.248 171.789 845.808 183.224 845.808 196.536C845.808 209.848 843.248 221.368 838.128 231.096C833.008 240.653 825.84 248.077 816.624 253.368C807.408 258.659 796.656 261.304 784.368 261.304ZM784.368 241.336C794.949 241.336 803.482 237.496 809.968 229.816C816.453 222.136 819.696 211.043 819.696 196.536C819.696 182.029 816.453 171.021 809.968 163.512C803.482 155.832 794.949 151.992 784.368 151.992C773.616 151.992 764.997 155.832 758.512 163.512C752.026 171.021 748.784 182.029 748.784 196.536C748.784 211.043 752.026 222.136 758.512 229.816C764.997 237.496 773.616 241.336 784.368 241.336ZM916.062 261.304C905.822 261.304 896.264 260.024 887.39 257.464C878.515 254.733 871.091 250.979 865.118 246.2L872.542 228.792C878.856 233.229 885.768 236.643 893.278 239.032C900.958 241.421 908.638 242.616 916.318 242.616C925.363 242.616 932.19 240.995 936.798 237.752C941.406 234.509 943.71 230.157 943.71 224.696C943.71 220.259 942.174 216.845 939.102 214.456C936.03 211.896 931.422 209.933 925.278 208.568L900.958 203.704C879.454 199.267 868.702 188.173 868.702 170.424C868.702 158.648 873.395 149.261 882.782 142.264C892.168 135.267 904.456 131.768 919.646 131.768C928.35 131.768 936.627 133.048 944.478 135.608C952.499 138.168 959.155 142.008 964.446 147.128L957.022 164.536C951.902 160.099 946.014 156.685 939.358 154.296C932.702 151.907 926.131 150.712 919.646 150.712C910.771 150.712 904.03 152.419 899.422 155.832C894.814 159.075 892.51 163.512 892.51 169.144C892.51 177.677 898.142 183.139 909.406 185.528L933.726 190.392C944.819 192.611 953.182 196.365 958.814 201.656C964.616 206.947 967.518 214.115 967.518 223.16C967.518 235.107 962.824 244.493 953.438 251.32C944.051 257.976 931.592 261.304 916.062 261.304ZM1045.72 261.304C1030.02 261.304 1018.33 257.293 1010.65 249.272C1002.97 241.251 999.132 229.645 999.132 214.456V154.04H974.812V134.072H999.132V96.44H1024.99V134.072H1063.64V154.04H1024.99V212.408C1024.99 221.453 1026.86 228.28 1030.62 232.888C1034.54 237.496 1040.86 239.8 1049.56 239.8C1052.29 239.8 1054.94 239.544 1057.5 239.032C1060.06 238.349 1062.62 237.581 1065.18 236.728L1069.28 256.184C1066.72 257.72 1063.13 258.915 1058.52 259.768C1054.09 260.792 1049.82 261.304 1045.72 261.304ZM1123.35 261.304C1114.65 261.304 1106.88 259.597 1100.06 256.184C1093.23 252.771 1087.77 248.163 1083.67 242.36C1079.75 236.557 1077.78 229.987 1077.78 222.648C1077.78 213.432 1080.09 206.179 1084.7 200.888C1089.47 195.597 1097.24 191.757 1107.99 189.368C1118.91 186.979 1133.59 185.784 1152.02 185.784H1160.73V179.128C1160.73 169.4 1158.68 162.403 1154.58 158.136C1150.49 153.869 1143.75 151.736 1134.36 151.736C1127.19 151.736 1120.02 152.845 1112.86 155.064C1105.69 157.112 1098.35 160.44 1090.84 165.048L1082.9 146.872C1089.39 142.264 1097.5 138.595 1107.22 135.864C1116.95 133.133 1126.25 131.768 1135.13 131.768C1152.19 131.768 1164.82 135.864 1173.02 144.056C1181.21 152.077 1185.3 164.707 1185.3 181.944V259H1160.98V238.264C1157.91 245.432 1153.13 251.064 1146.65 255.16C1140.16 259.256 1132.4 261.304 1123.35 261.304ZM1128.47 242.872C1137.69 242.872 1145.37 239.629 1151.51 233.144C1157.66 226.659 1160.73 218.467 1160.73 208.568V201.656H1152.28C1139.82 201.656 1130.01 202.253 1122.84 203.448C1115.84 204.643 1110.81 206.691 1107.74 209.592C1104.83 212.323 1103.38 216.163 1103.38 221.112C1103.38 227.597 1105.6 232.888 1110.04 236.984C1114.48 240.909 1120.62 242.872 1128.47 242.872ZM1229.91 305.08L1252.18 255.672L1199.95 134.072H1227.6L1266 229.048L1304.91 134.072H1331.54L1257.04 305.08H1229.91Z" fill="#FF5A5F"/>
<mask id="mask0_240_116" style="mask-type:luminance" maskUnits="userSpaceOnUse" x="0" y="46" width="254" height="256">
<path d="M253.35 46H0V302H253.35V46Z" fill="white"/>
</mask>
<g mask="url(#mask0_240_116)">
<path d="M216.112 264.313C240.002 240.332 253.394 207.849 253.348 174.001C253.322 171.912 252.475 169.916 250.989 168.448C249.502 166.979 247.497 166.156 245.408 166.156C243.318 166.156 241.313 166.979 239.827 168.448C238.34 169.916 237.493 171.912 237.468 174.001C237.501 203.664 225.759 232.129 204.821 253.142C194.656 263.577 182.505 271.871 169.082 277.535C155.661 283.198 141.24 286.115 126.673 286.115C112.105 286.115 97.6849 283.198 84.2631 277.535C70.8413 271.871 58.6896 263.577 48.5251 253.142C27.615 232.108 15.8783 203.655 15.8783 173.996C15.8783 144.337 27.615 115.883 48.5251 94.8497C58.6304 84.4945 70.6909 76.2483 84.0071 70.5893C97.3234 64.9303 111.631 61.9709 126.099 61.8828C129.188 61.9796 132.118 63.2796 134.262 65.5054C136.407 67.731 137.597 70.7066 137.579 73.7974C137.561 76.8882 136.337 79.8496 134.166 82.0504C131.996 84.2511 129.052 85.5167 125.961 85.5776C125.675 85.5781 125.389 85.594 125.105 85.6251C103.092 86.334 82.2061 95.5252 66.8132 111.277C50.5571 127.641 41.4336 149.771 41.4336 172.837C41.4336 195.904 50.5571 218.033 66.8132 234.398C74.7549 242.533 84.2433 248.998 94.7203 253.412C105.197 257.825 116.452 260.099 127.82 260.099C139.188 260.099 150.443 257.825 160.92 253.412C171.396 248.998 180.885 242.533 188.827 234.398C205.108 218.051 214.235 195.91 214.203 172.837C214.236 169.204 213.549 165.598 212.182 162.231C210.813 158.864 208.793 155.801 206.234 153.219C203.676 150.638 200.632 148.588 197.277 147.19C193.923 145.791 190.325 145.071 186.69 145.071C183.055 145.071 179.457 145.791 176.103 147.19C172.748 148.588 169.704 150.638 167.146 153.219C164.587 155.801 162.567 158.864 161.198 162.231C159.831 165.598 159.144 169.204 159.177 172.837C159.177 173.069 159.192 173.287 159.211 173.51C159.192 173.732 159.177 173.954 159.177 174.182C159.229 180.517 157.397 186.726 153.914 192.02C150.432 197.313 145.456 201.452 139.617 203.913C133.778 206.373 127.339 207.044 121.119 205.84C114.898 204.635 109.175 201.611 104.677 197.149C100.178 192.686 97.1059 186.989 95.8507 180.778C94.5954 174.567 95.2134 168.124 97.6261 162.265C100.039 156.406 104.138 151.396 109.402 147.87C114.667 144.344 120.861 142.462 127.197 142.462C128.248 142.474 129.29 142.278 130.265 141.885C131.239 141.492 132.126 140.909 132.873 140.17C133.621 139.432 134.215 138.552 134.619 137.582C135.025 136.613 135.233 135.572 135.233 134.521C135.233 133.471 135.025 132.43 134.619 131.461C134.215 130.491 133.621 129.611 132.873 128.873C132.126 128.134 131.239 127.551 130.265 127.158C129.29 126.765 128.248 126.569 127.197 126.581C117.794 126.633 108.616 129.47 100.823 134.732C93.0296 139.994 86.9695 147.447 83.4072 156.149C79.8449 164.852 78.9399 174.414 80.8064 183.631C82.673 192.847 87.2274 201.304 93.8951 207.935C100.563 214.565 109.045 219.073 118.272 220.889C127.498 222.703 137.056 221.745 145.738 218.134C154.421 214.524 161.84 208.423 167.059 200.6C172.278 192.778 175.062 183.585 175.062 174.182C175.062 173.95 175.047 173.732 175.029 173.51C175.047 173.287 175.062 173.065 175.062 172.837C175.031 171.291 175.309 169.753 175.88 168.314C176.45 166.876 177.303 165.565 178.385 164.461C179.469 163.356 180.762 162.477 182.188 161.878C183.615 161.279 185.148 160.971 186.695 160.971C188.242 160.971 189.774 161.279 191.201 161.878C192.627 162.477 193.92 163.356 195.004 164.461C196.086 165.565 196.939 166.876 197.509 168.314C198.08 169.753 198.358 171.291 198.327 172.837C198.348 191.727 190.871 209.852 177.537 223.231C171.073 229.873 163.343 235.151 154.804 238.756C146.266 242.361 137.091 244.217 127.822 244.217C118.555 244.217 109.38 242.361 100.842 238.756C92.303 235.151 84.5732 229.873 78.1084 223.231C64.793 209.84 57.3189 191.722 57.3189 172.837C57.3189 153.953 64.793 135.835 78.1084 122.443C84.5783 115.81 92.3083 110.537 100.845 106.933C109.381 103.329 118.551 101.468 127.818 101.458C128.53 101.456 129.239 101.358 129.926 101.166C136.686 100.129 142.824 96.6332 147.165 91.3487C151.505 86.0641 153.742 79.3631 153.445 72.5312C153.148 65.6991 150.339 59.2172 145.557 54.3289C140.774 49.4405 134.356 46.4899 127.533 46.0431C127.248 46.0121 126.96 45.9962 126.673 45.9956C126.513 45.9956 126.354 45.9956 126.194 45.9956C126.115 45.9956 126.039 45.9956 125.963 45.9956C125.886 45.9956 125.807 46.0049 125.731 46.0072C109.224 46.137 92.9054 49.5331 77.717 55.9996C62.5285 62.466 48.7704 71.8751 37.2357 83.6842C13.3857 107.69 0 140.156 0 173.996C0 207.836 13.3857 240.301 37.2357 264.307C48.877 276.236 62.7871 285.717 78.1471 292.188C93.5073 298.661 110.007 301.996 126.675 301.996C143.343 301.996 159.842 298.661 175.204 292.188C190.564 285.717 204.473 276.236 216.115 264.307L216.112 264.313Z" fill="#FF5A5F"/>
</g>
</svg>
